HIERARCHY
ROOT Hips
{
  OFFSET 0 0 0
  CHANNELS 6 Xposition Yposition Zposition Zrotation Yrotation Xrotation
  JOINT LeftThigh
  {
    OFFSET 8.409438 0 -5.917753
    CHANNELS 3 Zrotation Yrotation Xrotation
    JOINT LeftLeg
    {
      OFFSET 0 0 -42.358652
      CHANNELS 3 Zrotation Yrotation Xrotation
      JOINT LeftFoot
      {
        OFFSET 0 0 -39.357303
        CHANNELS 3 Zrotation Yrotation Xrotation
      }
    }
  }
  JOINT RightThigh
  {
    OFFSET -8.409438 0 -5.917753
    CHANNELS 3 Zrotation Yrotation Xrotation
    JOINT RightLeg
    {
      OFFSET 0 0 -42.358652
      CHANNELS 3 Zrotation Yrotation Xrotation
      JOINT RightFoot
      {
        OFFSET 0 0 -39.357303
        CHANNELS 3 Zrotation Yrotation Xrotation
      }
    }
  }
  JOINT SpineLow
  {
    OFFSET 0 0 4.719101
    CHANNELS 3 Zrotation Yrotation Xrotation
    JOINT SpineMid
    {
      OFFSET 0 0 12.899191
      CHANNELS 3 Zrotation Yrotation Xrotation
      JOINT Chest
      {
        OFFSET 0 0 12.899191
        CHANNELS 3 Zrotation Yrotation Xrotation
        JOINT LeftShoulder
        {
          OFFSET 7.550562 1.41573 9.438202
          CHANNELS 3 Zrotation Yrotation Xrotation
          JOINT LeftArm
          {
            OFFSET 9.155056 0 4.247191
            CHANNELS 3 Zrotation Yrotation Xrotation
            JOINT LeftForearm
            {
              OFFSET 0 0 25.771955
              CHANNELS 3 Zrotation Yrotation Xrotation
              JOINT LeftHand
              {
                OFFSET 0 0 25.197169
                CHANNELS 3 Zrotation Yrotation Xrotation
              }
            }
          }
        }
        JOINT RightShoulder
        {
          OFFSET -7.550562 1.41573 9.438202
          CHANNELS 3 Zrotation Yrotation Xrotation
          JOINT RightArm
          {
            OFFSET -9.155056 0 4.247191
            CHANNELS 3 Zrotation Yrotation Xrotation
            JOINT RightForearm
            {
              OFFSET 0 0 -25.771955
              CHANNELS 3 Zrotation Yrotation Xrotation
              JOINT RightHand
              {
                OFFSET 0 0 -25.197169
                CHANNELS 3 Zrotation Yrotation Xrotation
              }
            }
          }
        }
        JOINT Neck
        {
          OFFSET 0 0 15.101124
          CHANNELS 3 Zrotation Yrotation Xrotation
          JOINT Head
          {
            OFFSET 0 0 11.325843
            CHANNELS 3 Zrotation Yrotation Xrotation
            End Site
            {
              OFFSET 0 0 14.157303
            }
          }
        }
      }
    }
  }
}
MOTION
Frames: 13
Frame Time: 0.0
0.0  93.25843  0.0  -3.023523  -28.035459  -92.96384  12.925573  -18.018021  4.342871  9.68409  -0.443699  6.380882  9.049317  1.016517  4.499103  -6.917054  -0.506874  -14.887292  -4.91509  9.875271  9.402622  11.694332  1.08098  0.370709  -1.771179  -1.472659  0.559102  -4.880574  -3.981643  1.637055  -4.880575  -3.981643  1.637055  -19.685496  28.851347  -4.350954  133.363968  78.762592  -166.841985  13.260551  -16.733309  54.133726  84.027985  8.725168  -4.217205  -13.411973  -2.260472  15.526469  55.178568  19.687155  27.59116  -21.517664  -1.638962  -121.156203  76.263941  3.542013  -13.348973  9.630658  1.404906  1.998092  7.218132  1.085502  1.476784  
0.0  93.25843  0.0  -2.953666  -28.243247  -93.112978  12.482711  -18.155567  4.082949  10.017521  -0.246931  7.176228  9.086241  1.063206  4.536959  -6.853271  -0.669819  -14.942199  -4.635085  10.201617  9.979958  11.70968  1.250625  0.291497  -1.756808  -1.455559  0.54854  -4.840104  -3.936084  1.606022  -4.840104  -3.936084  1.606022  -19.098766  29.152537  -4.206301  133.821105  78.442611  -166.179166  12.497004  -16.21217  54.252589  83.964528  8.107043  -4.903635  -12.890954  -2.262111  15.982201  55.92726  20.64757  27.257763  -22.096436  -1.626729  -121.076142  76.06476  3.763949  -13.575626  9.674271  1.351753  2.087218  7.250852  1.047182  1.544396  
0.0  93.25843  0.0  -2.819785  -28.173235  -93.19931  12.420534  -18.198568  3.821492  10.147924  -0.047591  8.019484  9.000834  1.09243  4.481937  -7.132087  -0.758619  -15.065724  -4.228668  10.497625  10.550758  11.803912  1.373582  0.261943  -1.736959  -1.428857  0.540845  -4.784548  -3.864214  1.581815  -4.784548  -3.864213  1.581815  -18.961935  29.275997  -4.261154  134.80829  78.048805  -165.055902  11.855076  -15.774017  54.40377  83.910043  7.608642  -5.461409  -12.586368  -2.237078  16.394383  56.713682  21.706261  26.829955  -22.717224  -1.491046  -120.833402  75.891251  4.053187  -13.696998  9.641967  1.351584  2.10481  7.226589  1.047222  1.557665  
0.0  93.25843  0.0  -2.854196  -28.202396  -93.311323  12.407674  -18.524762  3.480634  10.065278  0.23062  8.891065  8.903243  1.13216  4.464331  -7.548795  -0.98175  -15.13427  -4.323614  10.797541  10.999479  12.584928  1.4849  0.326822  -1.701229  -1.420382  0.545499  -4.686806  -3.841624  1.591847  -4.686807  -3.841624  1.591847  -18.428644  29.514709  -4.131389  135.414901  77.630012  -164.146944  11.414644  -15.444535  54.542844  83.951013  7.125296  -5.869217  -12.363616  -2.151611  16.806649  57.640836  22.759541  26.460178  -23.971802  -1.739475  -120.812115  75.664462  3.862218  -14.422535  9.65079  1.31637  2.159514  7.233231  1.021698  1.599245  
0.0  93.25843  0.0  -2.823146  -27.821897  -93.340176  12.323374  -18.738277  2.925333  9.97915  0.501144  10.021379  8.789707  1.169206  4.442314  -8.102931  -1.101607  -15.264328  -3.733635  11.048999  11.718486  12.734457  1.56203  0.299438  -1.672109  -1.397326  0.533531  -4.605777  -3.780212  1.555784  -4.605777  -3.780213  1.555784  -18.390951  29.575542  -4.008627  137.083731  77.175611  -162.325255  11.168132  -15.281274  54.734007  84.048678  6.859522  -6.090234  -12.318823  -2.086535  17.260975  58.45074  23.879232  26.034998  -24.334771  -1.602471  -120.644447  75.500825  4.087021  -14.255631  9.500134  1.301493  2.140115  7.120342  1.009694  1.585235  
0.0  93.25843  0.0  -2.929793  -27.408239  -93.418497  13.19248  -19.140015  2.808884  9.113947  0.895195  10.649565  8.413818  1.223114  4.250462  -8.507413  -1.287243  -15.284539  -3.560504  11.291512  12.416921  13.008208  1.669387  0.291373  -1.646192  -1.395961  0.533354  -4.534822  -3.777133  1.55373  -4.534821  -3.777134  1.55373  -17.988999  29.772746  -3.712392  138.624158  76.649084  -160.453731  10.875567  -14.932593  53.223679  84.577664  4.896584  -6.025867  -12.170508  -1.958139  17.782067  59.171351  25.041308  25.6213  -24.50812  -1.548059  -120.550774  75.23406  4.360993  -14.063151  9.364232  1.273279  2.140258  7.018529  0.988045  1.586054  
0.0  93.25843  0.0  -3.016386  -26.717584  -93.553968  13.0627  -19.517558  2.183681  8.655758  1.226346  11.813264  8.382059  1.206585  4.281932  -8.777581  -1.378805  -15.182769  -3.276989  11.512691  13.219644  12.932862  1.791693  0.242311  -1.619401  -1.383992  0.546024  -4.461891  -3.744233  1.586025  -4.461891  -3.744233  1.586025  -17.901802  29.780412  -3.46719  140.939484  75.90183  -157.918322  10.700184  -15.018081  53.494226  84.750257  4.773914  -6.056823  -12.089512  -1.877454  18.235589  59.794402  26.19555  25.2098  -24.624934  -1.518089  -120.513729  74.802283  4.633159  -13.899948  9.134126  1.265799  2.074745  6.846114  0.980633  1.53748  
0.0  93.25843  0.0  -3.27922  -26.507446  -93.982295  13.718018  -20.200163  1.890481  7.988161  1.580188  12.890458  8.466254  1.145405  4.418671  -8.420214  -1.560175  -14.649783  -2.828476  11.729536  14.066759  12.304039  1.871709  0.135212  -1.56074  -1.424161  0.61377  -4.306486  -3.850996  1.770693  -4.306486  -3.850996  1.770693  -17.251387  30.091952  -3.172451  147.422219  74.50536  -153.553373  11.058408  -15.376425  56.198364  84.887217  4.601815  -6.303669  -11.562535  -1.675661  18.638478  60.328728  27.314156  24.900973  -24.815683  -1.545041  -120.49368  74.318873  4.838464  -13.921109  9.00496  1.348045  2.047894  6.748982  1.041492  1.516373  
0.0  93.25843  0.0  -3.43705  -25.389056  -94.177675  13.8096  -20.669568  1.296187  7.287861  1.874819  13.919515  8.274108  1.114319  4.394484  -8.931173  -1.584525  -14.307746  -2.873898  11.920497  14.680678  12.09642  2.017756  0.087128  -1.528058  -1.425559  0.630857  -4.218102  -3.854626  1.815625  -4.218102  -3.854625  1.815625  -17.284805  30.203056  -3.006545  148.723961  73.311691  -151.98865  10.478338  -15.255338  56.541056  84.990324  4.336011  -6.82159  -11.617599  -1.570521  19.146389  60.81604  28.506703  24.430974  -24.964186  -1.565493  -120.463388  73.945397  5.054659  -14.027604  8.541682  1.321627  1.990987  6.401753  1.019297  1.47504  
0.0  93.25843  0.0  -3.611276  -24.153998  -94.389411  14.051623  -21.104993  0.791719  6.566375  2.069659  14.797763  8.030757  1.087683  4.402336  -9.496667  -1.462658  -13.912726  -2.461342  11.957437  15.450652  11.795034  2.084091  0.019398  -1.503312  -1.438755  0.639617  -4.151336  -3.890826  1.839008  -4.151336  -3.890826  1.839008  -17.094568  30.43228  -2.777902  149.742406  71.948631  -150.639654  9.63386  -14.899263  56.952362  85.139091  3.954105  -7.67589  -11.60137  -1.349422  19.597342  61.237818  29.606677  23.962996  -25.107869  -1.540826  -120.471552  73.726417  5.224262  -14.152203  7.985998  1.296637  1.972133  5.985133  0.998463  1.462385  
0.0  93.25843  0.0  -3.764432  -22.543436  -94.569132  14.032801  -21.439401  0.265582  5.867128  2.168234  15.593779  7.629082  1.119268  4.31472  -10.576575  -1.163774  -13.667796  -2.787544  11.960386  16.036307  11.765919  2.220272  -0.01116  -1.50272  -1.451683  0.637391  -4.150009  -3.926302  1.83373  -4.150009  -3.926301  1.833729  -16.915693  30.665873  -2.606998  150.645375  70.420758  -149.404176  8.559522  -14.231609  57.426272  85.416994  3.42836  -8.860813  -11.311554  -1.146129  20.023377  61.202905  30.703187  23.39983  -25.288233  -1.463181  -120.476075  73.572307  5.414611  -14.238984  7.337966  1.269547  1.977903  5.499209  0.976088  1.468371  
0.0  93.25843  0.0  -3.889218  -20.603737  -94.761755  13.828411  -21.742143  -0.25444  5.140447  2.25983  16.314104  7.263048  1.166803  4.260047  -11.833825  -0.778568  -13.360494  -2.904343  11.830039  16.774067  11.576947  2.470412  -0.168873  -1.510128  -1.463704  0.633542  -4.170443  -3.959172  1.824425  -4.170443  -3.959172  1.824425  -16.767632  30.936355  -2.458409  151.389792  68.829866  -148.298351  7.256118  -13.254337  57.987108  85.846682  2.843714  -10.230232  -10.944959  -1.000907  20.392378  60.92669  31.86674  22.856298  -25.524808  -1.326808  -120.490868  73.340189  5.61462  -14.159982  6.504277  1.221092  1.97896  4.87413  0.937018  1.471364  
0.0  93.25843  0.0  -4.038965  -18.360315  -94.935443  13.329478  -22.051296  -0.819519  4.251561  2.45371  16.891375  7.084177  1.19669  4.249845  -13.431192  -0.419953  -12.962723  -3.437456  11.902568  17.14226  11.632708  2.644703  -0.250222  -1.531341  -1.485317  0.609857  -4.227764  -4.019135  1.762341  -4.227764  -4.019134  1.762341  -16.437482  31.247518  -2.157794  151.939286  67.132559  -147.34046  5.76688  -12.05023  58.710786  86.393725  2.399135  -11.629702  -10.566182  -0.814382  20.747141  60.610549  33.084722  22.368986  -25.75522  -1.209925  -120.497052  73.046209  5.848347  -13.857383  5.552086  1.221613  2.034201  4.159895  0.934794  1.514641  
